<svg width="93" height="20" viewBox="0 0 93 20" fill="none" xmlns="http://www.w3.org/2000/svg">
<path fill-rule="evenodd" clip-rule="evenodd" d="M2 1V0H0V1V10.5C0 11.5971 0.156329 12.4355 0.396448 13.1076C0.637782 13.783 0.948457 14.2449 1.1835 14.5774C1.54167 15.0839 2.05529 15.3887 2.52088 15.5773C2.99292 15.7686 3.49407 15.8723 3.92762 15.9305C4.36617 15.9893 4.76961 16.006 5.06119 16.0085C5.20808 16.0097 5.32932 16.0073 5.41576 16.0046C5.45904 16.0032 5.49377 16.0017 5.51883 16.0004L5.52714 16H8.33855L6.3415 17.7474L5.58892 18.4059L6.90593 19.9111L7.6585 19.2526L11.6585 15.7526C11.8755 15.5627 12 15.2884 12 15C12 14.7116 11.8755 14.4373 11.6585 14.2474L7.6585 10.7474L6.90593 10.0889L5.58892 11.5941L6.3415 12.2526L8.33855 14H5.5C5.47876 14 5.45752 14.0007 5.43633 14.002L5.43591 14.0021L5.43554 14.0021L5.42076 14.0028C5.40628 14.0036 5.38281 14.0046 5.35142 14.0056C5.28852 14.0076 5.19457 14.0095 5.07805 14.0085C4.84282 14.0066 4.5266 13.9929 4.1937 13.9482C3.8558 13.9029 3.53373 13.8298 3.27186 13.7237C3.00353 13.615 2.87254 13.5019 2.8165 13.4226C2.61993 13.1447 2.4306 12.8566 2.27984 12.4346C2.12786 12.0093 2 11.4029 2 10.5V1ZM5.43633 14.002L5.43659 14.0079C5.43625 14.002 5.43629 14.002 5.43633 14.002ZM5.43659 14.0079C5.43813 14.0344 5.44746 14.1818 5.5 15C5.56409 15.9979 5.56386 15.998 5.56361 15.998L5.56307 15.998L5.56181 15.9981L5.55854 15.9983L5.54908 15.9988L5.52714 16L5.43659 14.0079Z" fill="#FBFBFB"/>
<path d="M25.968 17.1671C24.3253 17.1671 22.9973 16.6285 21.984 15.5511C20.96 14.4738 20.448 13.0285 20.448 11.2151C20.448 9.39113 20.9547 7.94047 21.968 6.86313C22.9707 5.79647 24.304 5.26313 25.968 5.26313C27.3013 5.26313 28.4373 5.62047 29.376 6.33513C30.3147 7.0498 30.9013 8.08447 31.136 9.43913H28.944C28.752 8.69247 28.3947 8.12713 27.872 7.74313C27.36 7.34847 26.7253 7.15113 25.968 7.15113C24.9547 7.15113 24.1547 7.5138 23.568 8.23913C22.992 8.9538 22.704 9.9458 22.704 11.2151C22.704 12.4951 22.992 13.4925 23.568 14.2071C24.144 14.9218 24.944 15.2791 25.968 15.2791C26.7573 15.2791 27.4347 15.0445 28 14.5751C28.5653 14.1058 28.9067 13.4551 29.024 12.6231H31.184C31.0453 14.0738 30.48 15.1938 29.488 15.9831C28.5067 16.7725 27.3333 17.1671 25.968 17.1671ZM41.5458 15.5351C40.5004 16.6231 39.1244 17.1671 37.4178 17.1671C35.7111 17.1671 34.3351 16.6231 33.2898 15.5351C32.2444 14.4365 31.7218 12.9965 31.7218 11.2151C31.7218 9.4338 32.2444 7.9938 33.2898 6.89513C34.3351 5.80713 35.7111 5.26313 37.4178 5.26313C39.1244 5.26313 40.5004 5.80713 41.5458 6.89513C42.5804 7.97247 43.0978 9.41247 43.0978 11.2151C43.0978 13.0178 42.5804 14.4578 41.5458 15.5351ZM33.9778 11.2151C33.9778 12.4631 34.2924 13.4498 34.9218 14.1751C35.5511 14.9005 36.3831 15.2631 37.4178 15.2631C38.4631 15.2631 39.3004 14.9005 39.9298 14.1751C40.5484 13.4605 40.8578 12.4738 40.8578 11.2151C40.8578 9.95647 40.5484 8.9698 39.9298 8.25513C39.3004 7.5298 38.4631 7.16713 37.4178 7.16713C36.3831 7.16713 35.5511 7.5298 34.9218 8.25513C34.2924 8.98047 33.9778 9.96713 33.9778 11.2151ZM51.699 8.49513V5.51913H53.779V16.9111H51.379L48.211 11.8391C47.347 10.4845 46.6697 9.34313 46.179 8.41513C46.2217 9.6098 46.243 11.4498 46.243 13.9351V16.9111H44.163V5.51913H46.563L49.747 10.5911C50.6963 12.1271 51.3683 13.2685 51.763 14.0151C51.7203 12.4258 51.699 10.5858 51.699 8.49513ZM54.5616 5.51913H64.0336V7.45513H60.3856V16.9111H58.2096V7.45513H54.5616V5.51913ZM73.4085 16.9111H71.1205L70.2245 14.3991H65.2325L64.3525 16.9111H62.1285L66.4645 5.51913H68.9925L73.4085 16.9111ZM66.3205 11.3271L65.8885 12.5591H69.5685L69.1205 11.3271C68.7472 10.3778 68.2778 9.07647 67.7125 7.42313C67.2645 8.7458 66.8005 10.0471 66.3205 11.3271ZM78.3524 17.1671C76.7097 17.1671 75.3817 16.6285 74.3684 15.5511C73.3444 14.4738 72.8324 13.0285 72.8324 11.2151C72.8324 9.39113 73.339 7.94047 74.3524 6.86313C75.355 5.79647 76.6884 5.26313 78.3524 5.26313C79.6857 5.26313 80.8217 5.62047 81.7604 6.33513C82.699 7.0498 83.2857 8.08447 83.5204 9.43913H81.3284C81.1364 8.69247 80.779 8.12713 80.2564 7.74313C79.7444 7.34847 79.1097 7.15113 78.3524 7.15113C77.339 7.15113 76.539 7.5138 75.9524 8.23913C75.3764 8.9538 75.0884 9.9458 75.0884 11.2151C75.0884 12.4951 75.3764 13.4925 75.9524 14.2071C76.5284 14.9218 77.3284 15.2791 78.3524 15.2791C79.1417 15.2791 79.819 15.0445 80.3844 14.5751C80.9497 14.1058 81.291 13.4551 81.4084 12.6231H83.5684C83.4297 14.0738 82.8644 15.1938 81.8724 15.9831C80.891 16.7725 79.7177 17.1671 78.3524 17.1671ZM83.086 5.51913H92.558V7.45513H88.91V16.9111H86.734V7.45513H83.086V5.51913Z" fill="#FBFBFB"/>
</svg>
