<svg width="80" height="26" viewBox="0 0 80 26" fill="none" xmlns="http://www.w3.org/2000/svg">
<path d="M9.36 22.288C4.248 22.288 0.936 18.736 0.936 13.24C0.936 7.792 4.368 4.168 9.504 4.168C13.656 4.168 16.752 6.592 17.352 10.36H14.112C13.512 8.32 11.76 7.12 9.432 7.12C6.192 7.12 4.152 9.472 4.152 13.216C4.152 16.936 6.216 19.336 9.432 19.336C11.808 19.336 13.632 18.088 14.208 16.144H17.4C16.728 19.84 13.512 22.288 9.36 22.288ZM17.658 7.288V4.456H31.002V7.288H25.866V22H22.794V7.288H17.658ZM32.5408 7.288V4.456H45.8848V7.288H40.7488V22H37.6768V7.288H32.5408ZM51.2571 22H48.2331V4.456H51.2811L59.5131 16.888V4.456H62.5371V22H59.5131L51.2571 9.568V22Z" fill="white"/>
<path d="M73.9403 14.1879C70.934 14.1879 68.5781 11.7742 68.5781 8.71013C68.5781 5.64606 70.934 3.24683 73.9403 3.24683C76.9321 3.24683 79.2879 5.64606 79.2879 8.71013C79.2879 11.7742 76.9321 14.1879 73.9403 14.1879ZM73.9403 13.1184C76.325 13.1184 78.1461 11.2105 78.1461 8.71013C78.1461 6.20973 76.325 4.31637 73.9403 4.31637C71.541 4.31637 69.7055 6.22419 69.7055 8.71013C69.7055 11.2105 71.541 13.1184 73.9403 13.1184ZM71.2231 8.72459C71.2231 7.04802 72.3649 5.86286 73.9692 5.86286C75.4145 5.86286 76.4262 6.67224 76.5852 7.97302H75.2266C75.0676 7.36599 74.6629 7.06247 74.0125 7.06247C73.1598 7.06247 72.5672 7.72732 72.5672 8.71013C72.5672 9.72186 73.1309 10.3578 73.9692 10.3578C74.6485 10.3578 75.0821 10.0543 75.241 9.4617H76.5852C76.4262 10.7191 75.3711 11.5719 73.9692 11.5719C72.3215 11.5719 71.2231 10.4301 71.2231 8.72459Z" fill="white"/>
</svg>
