<svg width="1377" height="308" viewBox="0 0 1377 308" fill="none" xmlns="http://www.w3.org/2000/svg">
<path d="M883.165 288.347C880.039 288.347 876.565 287.653 875.523 286.958C858.504 274.106 859.893 233.467 873.439 199.775C888.722 162.262 923.109 134.127 952.981 120.233C966.875 113.634 979.726 110.16 989.452 110.16C1006.47 110.16 1016.2 112.939 1036.69 135.516C1041.55 131.348 1053.36 120.233 1061 111.897C1064.48 108.424 1064.13 112.592 1064.13 112.592C1041.55 140.726 984.589 226.868 986.326 255.697C986.673 261.602 991.883 268.201 998.83 270.285C1007.51 266.465 1026.62 254.308 1040.51 239.719L1042.6 242.151C1029.74 254.655 1009.6 273.759 987.715 286.958C986.326 287.653 983.2 288 979.726 288C974.864 288 968.959 287.305 968.264 286.611C960.97 278.274 957.496 265.77 957.149 258.823C955.76 236.941 979.379 208.806 991.189 189.702C971.39 211.237 946.034 236.246 922.415 257.781C910.605 268.549 899.49 278.622 889.417 286.958C888.028 288 885.596 288.347 883.165 288.347ZM897.406 269.591C901.574 268.549 909.216 263.339 918.941 255.35C946.381 232.772 989.452 188.312 1017.93 153.925C995.357 125.443 983.2 118.496 969.306 118.496C964.443 118.496 959.58 119.886 954.37 122.317C932.835 132.39 909.91 161.22 899.143 195.259C888.028 229.646 888.028 258.823 897.406 269.591Z" fill="white"/>
<path d="M49.687 105.181V257.331H136.961V288.482H14.9318V105.181H49.687ZM291.133 105.181V136.332H190.729V179.583H281.607V209.446H190.729V257.331H290.618V288.482H155.974V105.181H291.133ZM301.036 105.181H453.444V136.332H394.746V288.482H359.734V136.332H301.036V105.181ZM467.352 139.679V105.181H502.88V142.511C502.88 165.509 492.496 177.352 471.729 178.038L467.352 178.295V160.532L471.471 160.274C478.851 159.759 482.541 154.267 482.541 143.798V139.679H467.352ZM593.054 292.601C568.168 292.601 548.859 287.023 535.129 275.867C521.57 264.711 514.705 248.75 514.533 227.982H548.773C548.945 241.026 552.807 250.38 560.358 256.044C568.082 261.708 579.323 264.54 594.084 264.54C606.098 264.54 615.28 262.309 621.63 257.846C627.981 253.212 631.156 246.604 631.156 238.023C631.156 230.814 628.41 225.322 622.918 221.546C617.597 217.77 607.814 214.424 593.569 211.506L578.122 208.417C538.819 201.037 519.167 182.5 519.167 152.808C519.167 137.018 525.174 124.489 537.188 115.221C549.202 105.782 565.851 101.062 587.133 101.062C611.333 101.062 629.611 106.211 641.969 116.509C654.498 126.806 661.105 141.223 661.792 159.759H628.067C627.38 149.29 623.862 141.567 617.511 136.589C611.333 131.612 601.378 129.123 587.648 129.123C577.006 129.123 568.854 131.097 563.19 135.045C557.526 138.992 554.695 144.57 554.695 151.779C554.695 159.159 557.269 164.823 562.418 168.77C567.738 172.717 577.092 176.064 590.479 178.81L606.441 181.9C627.895 186.19 643.342 192.627 652.781 201.208C662.393 209.618 667.198 221.289 667.198 236.221C667.198 254.07 660.676 267.972 647.632 277.927C634.588 287.71 616.396 292.601 593.054 292.601ZM731.956 105.181H884.364V136.332H825.666V288.482H790.653V136.332H731.956V105.181ZM1104.86 105.181V257.331H1192.14V288.482H1070.11V105.181H1104.86ZM1331.63 105.181H1374.88L1299.45 179.84L1374.88 288.482H1333.44L1274.74 203.01L1245.9 231.072V288.482H1211.15V105.181H1245.9V191.683L1331.63 105.181Z" fill="white"/>
</svg>
