<svg width="568" height="136" viewBox="0 0 568 136" fill="none" xmlns="http://www.w3.org/2000/svg">
<path d="M42.112 135.717C29.7387 135.717 20.1387 132.944 13.312 127.397C6.57067 121.85 3.15733 113.914 3.072 103.589H20.096C20.1813 110.074 22.1013 114.725 25.856 117.541C29.696 120.357 35.2853 121.765 42.624 121.765C48.5973 121.765 53.1627 120.656 56.32 118.437C59.4773 116.133 61.056 112.848 61.056 108.581C61.056 104.997 59.6907 102.266 56.96 100.389C54.3147 98.5116 49.4507 96.8476 42.368 95.3969L34.688 93.8609C15.1467 90.1916 5.376 80.9756 5.376 66.2129C5.376 58.3623 8.36267 52.1329 14.336 47.5249C20.3093 42.8316 28.5867 40.4849 39.168 40.4849C51.2 40.4849 60.288 43.0449 66.432 48.1649C72.6613 53.2849 75.9467 60.4529 76.288 69.6689H59.52C59.1787 64.4636 57.4293 60.6236 54.272 58.1489C51.2 55.6743 46.2507 54.4369 39.424 54.4369C34.1333 54.4369 30.08 55.4183 27.264 57.3809C24.448 59.3436 23.04 62.1169 23.04 65.7009C23.04 69.3703 24.32 72.1863 26.88 74.1489C29.5253 76.1116 34.176 77.7756 40.832 79.1409L48.768 80.6769C59.4347 82.8103 67.1147 86.0103 71.808 90.2769C76.5867 94.4583 78.976 100.261 78.976 107.685C78.976 116.56 75.7333 123.472 69.248 128.421C62.7627 133.285 53.7173 135.717 42.112 135.717ZM151.004 42.5329V58.0209H101.084V79.5249H146.268V94.3729H101.084V118.181H150.748V133.669H83.804V42.5329H151.004ZM227.983 109.477L228.751 123.045C228.836 127.397 229.775 130.938 231.567 133.669H213.775C212.239 131.109 211.428 127.482 211.343 122.789L210.959 112.805C210.703 107.258 209.423 103.418 207.119 101.285C204.9 99.0663 201.316 97.9569 196.367 97.9569H173.839V133.669H156.559V42.5329H197.903C208.058 42.5329 215.951 44.8369 221.583 49.4449C227.215 54.0529 230.031 60.3249 230.031 68.2609C230.031 79.1836 224.954 86.4369 214.799 90.0209C219.407 91.4716 222.692 93.7756 224.655 96.9329C226.703 100.005 227.812 104.186 227.983 109.477ZM173.839 56.7409V84.3889H196.879C201.743 84.3889 205.498 83.1943 208.143 80.8049C210.874 78.3303 212.239 74.7889 212.239 70.1809C212.239 65.8289 210.831 62.5009 208.015 60.1969C205.284 57.8929 201.359 56.7409 196.239 56.7409H173.839ZM278.757 89.6369L294.885 42.5329H312.805L280.165 133.669H259.941L226.533 42.5329H244.965L261.477 89.6369C265.317 101.242 268.218 110.714 270.181 118.053C272.4 109.605 275.258 100.133 278.757 89.6369ZM332.349 133.669H315.069V42.5329H332.349V133.669ZM528.022 135.717C515.649 135.717 506.049 132.944 499.222 127.397C492.481 121.85 489.067 113.914 488.982 103.589H506.006C506.091 110.074 508.011 114.725 511.766 117.541C515.606 120.357 521.195 121.765 528.534 121.765C534.507 121.765 539.073 120.656 542.23 118.437C545.387 116.133 546.966 112.848 546.966 108.581C546.966 104.997 545.601 102.266 542.87 100.389C540.225 98.5116 535.361 96.8476 528.278 95.3969L520.598 93.8609C501.057 90.1916 491.286 80.9756 491.286 66.2129C491.286 58.3623 494.273 52.1329 500.246 47.5249C506.219 42.8316 514.497 40.4849 525.078 40.4849C537.11 40.4849 546.198 43.0449 552.342 48.1649C558.571 53.2849 561.857 60.4529 562.198 69.6689H545.43C545.089 64.4636 543.339 60.6236 540.182 58.1489C537.11 55.6743 532.161 54.4369 525.334 54.4369C520.043 54.4369 515.99 55.4183 513.174 57.3809C510.358 59.3436 508.95 62.1169 508.95 65.7009C508.95 69.3703 510.23 72.1863 512.79 74.1489C515.435 76.1116 520.086 77.7756 526.742 79.1409L534.678 80.6769C545.345 82.8103 553.025 86.0103 557.718 90.2769C562.497 94.4583 564.886 100.261 564.886 107.685C564.886 116.56 561.643 123.472 555.158 128.421C548.673 133.285 539.627 135.717 528.022 135.717Z" fill="white"/>
<path d="M363.992 134.967C356.575 134.967 348.836 130.292 346.417 122.713C344.482 116.102 341.902 105.299 353.35 85.6283C359.639 74.8253 372.699 63.5386 387.21 55.6379C393.499 52.2519 399.626 50.6395 406.72 50.6395C416.878 50.6395 421.877 55.1542 421.877 60.9588C421.877 66.4409 416.072 69.8269 412.525 70.3106C410.59 62.5711 405.753 55.6379 395.111 55.6379C392.048 55.6379 390.274 55.9603 388.017 56.6053C380.116 62.0874 373.183 69.8269 367.862 78.695C361.09 89.9818 357.22 103.203 358.349 116.102C360.122 122.391 363.992 125.616 368.345 126.744C373.505 128.195 381.406 126.583 387.372 123.842C391.564 121.907 400.755 115.296 405.914 108.847L407.365 109.653C400.755 117.554 392.854 123.197 384.469 128.034C378.987 131.259 371.732 134.967 363.992 134.967ZM432.602 134.967C426.313 134.967 418.574 129.324 416.317 122.23C414.382 115.619 412.931 105.299 424.379 85.6283C430.667 74.8253 443.405 63.0549 454.208 56.9278C460.496 53.5418 467.752 51.1232 474.201 51.1232C483.714 51.1232 488.713 54.6704 488.713 60.1526C488.713 67.892 479.039 77.5664 455.498 92.5616C447.919 97.2375 439.051 102.72 428.571 108.685C428.248 111.265 428.248 113.684 428.41 116.102C430.667 124.326 435.504 127.228 441.954 127.228C446.63 127.228 452.595 125.616 457.11 123.519C461.302 121.585 471.783 113.684 476.942 107.234L478.394 108.041C471.783 115.941 461.947 123.358 453.402 128.034C447.919 131.098 440.341 134.967 432.602 134.967ZM437.923 80.7911C433.408 88.8531 429.861 98.0437 428.732 107.073C439.374 100.785 447.758 95.6251 454.53 91.2717C467.752 82.726 473.879 77.4051 475.814 72.2455C476.297 71.1168 476.459 69.8269 476.459 68.6982C476.459 61.9262 469.203 56.1216 461.463 56.1216C460.012 56.1216 458.722 56.2828 457.271 56.7665C451.95 60.3138 444.05 69.5044 437.923 80.7911Z" fill="white"/>
</svg>
