<svg width="159" height="24" viewBox="0 0 159 24" fill="none" xmlns="http://www.w3.org/2000/svg">
<path d="M14.72 20H11.86L10.74 16.86H4.5L3.4 20H0.62L6.04 5.76H9.2L14.72 20ZM5.86 13.02L5.32 14.56H9.92L9.36 13.02C8.89333 11.8333 8.30667 10.2067 7.6 8.14C7.04 9.79333 6.46 11.42 5.86 13.02ZM20.8783 9.52C21.1049 9.52 21.3116 9.53333 21.4983 9.56V11.88H20.8583C19.8983 11.88 19.1583 12.1267 18.6383 12.62C18.1316 13.1 17.8783 13.8133 17.8783 14.76V20H15.3583V9.68H17.7983V11.52C18.3716 10.1867 19.3983 9.52 20.8783 9.52ZM27.9359 9.68V11.6H25.8959V17.18C25.8959 17.5133 25.9826 17.7467 26.1559 17.88C26.3426 18.0133 26.6493 18.08 27.0759 18.08H27.9359V20C27.3893 20.0533 26.9493 20.08 26.6159 20.08C25.4959 20.08 24.6759 19.8733 24.1559 19.46C23.6493 19.0333 23.3959 18.36 23.3959 17.44V11.6H21.7959V9.68H23.3959V6.68H25.8959V9.68H27.9359ZM34.6714 9.44C35.7914 9.44 36.6714 9.76667 37.3114 10.42C37.9647 11.06 38.2914 11.9733 38.2914 13.16V20H35.7714V13.58C35.7714 12.2733 35.1247 11.62 33.8314 11.62C33.1914 11.62 32.6447 11.8533 32.1914 12.32C31.7514 12.7733 31.5314 13.4067 31.5314 14.22V20H29.0114V5.76H31.5314V11.06C32.3181 9.98 33.3647 9.44 34.6714 9.44ZM46.387 15.46V9.68H48.907V20H46.467V18.5C45.6804 19.66 44.6004 20.24 43.227 20.24C42.1204 20.24 41.2404 19.92 40.587 19.28C39.947 18.6267 39.627 17.7067 39.627 16.52V9.68H42.147V16.1C42.147 17.4067 42.7937 18.06 44.087 18.06C44.727 18.06 45.267 17.8333 45.707 17.38C46.1604 16.9133 46.387 16.2733 46.387 15.46ZM56.0752 9.52C56.3018 9.52 56.5085 9.53333 56.6952 9.56V11.88H56.0552C55.0952 11.88 54.3552 12.1267 53.8352 12.62C53.3285 13.1 53.0752 13.8133 53.0752 14.76V20H50.5552V9.68H52.9952V11.52C53.5685 10.1867 54.5952 9.52 56.0752 9.52ZM70.6888 12.54L73.0688 5.76H76.9888V20H74.4088V15.66C74.4088 12.9933 74.4354 10.64 74.4888 8.6C74.1954 9.6 73.8354 10.6933 73.4088 11.88L70.5288 20H68.3088L65.4088 11.88C64.9021 10.4 64.5488 9.32 64.3488 8.64C64.4021 10.6667 64.4288 13.0067 64.4288 15.66V20H61.8288V5.76H65.7488L68.2088 12.68C68.3688 13.1467 68.7754 14.4333 69.4288 16.54C69.8554 15.06 70.2754 13.7267 70.6888 12.54ZM88.4897 15.02V15.62H80.7697C80.863 16.5 81.1364 17.1667 81.5897 17.62C82.0564 18.06 82.6764 18.28 83.4497 18.28C84.5964 18.28 85.383 17.7867 85.8097 16.8H88.2297C87.963 17.8533 87.403 18.6933 86.5497 19.32C85.6964 19.9333 84.6564 20.24 83.4297 20.24C81.8964 20.24 80.6564 19.7467 79.7097 18.76C78.763 17.7733 78.2897 16.4667 78.2897 14.84C78.2897 13.2133 78.7564 11.9067 79.6897 10.92C80.6364 9.93333 81.8697 9.44 83.3897 9.44C84.9497 9.44 86.1897 9.95333 87.1097 10.98C88.0297 12.0067 88.4897 13.3533 88.4897 15.02ZM83.3697 11.4C81.8897 11.4 81.0297 12.22 80.7897 13.86H85.9697C85.863 13.1 85.583 12.5 85.1297 12.06C84.6764 11.62 84.0897 11.4 83.3697 11.4ZM97.0769 11.02V5.76H99.5969V20H97.1569V18.56C96.3969 19.68 95.3102 20.24 93.8969 20.24C92.4702 20.24 91.3435 19.7467 90.5169 18.76C89.6769 17.7733 89.2569 16.4667 89.2569 14.84C89.2569 13.1867 89.6769 11.8733 90.5169 10.9C91.3302 9.92667 92.4569 9.44 93.8969 9.44C95.2835 9.44 96.3435 9.96667 97.0769 11.02ZM91.8369 14.92C91.8369 15.9867 92.0702 16.7933 92.5369 17.34C93.0035 17.8867 93.6502 18.16 94.4769 18.16C95.3035 18.16 95.9569 17.8733 96.4369 17.3C96.9035 16.7267 97.1369 15.9067 97.1369 14.84C97.1369 13.7733 96.9035 12.9533 96.4369 12.38C95.9702 11.8067 95.3169 11.52 94.4769 11.52C93.6635 11.52 93.0169 11.82 92.5369 12.42C92.0702 13.02 91.8369 13.8533 91.8369 14.92ZM110.971 15.02V15.62H103.251C103.344 16.5 103.618 17.1667 104.071 17.62C104.538 18.06 105.158 18.28 105.931 18.28C107.078 18.28 107.864 17.7867 108.291 16.8H110.711C110.444 17.8533 109.884 18.6933 109.031 19.32C108.178 19.9333 107.138 20.24 105.911 20.24C104.378 20.24 103.138 19.7467 102.191 18.76C101.244 17.7733 100.771 16.4667 100.771 14.84C100.771 13.2133 101.238 11.9067 102.171 10.92C103.118 9.93333 104.351 9.44 105.871 9.44C107.431 9.44 108.671 9.95333 109.591 10.98C110.511 12.0067 110.971 13.3533 110.971 15.02ZM105.851 11.4C104.371 11.4 103.511 12.22 103.271 13.86H108.451C108.344 13.1 108.064 12.5 107.611 12.06C107.158 11.62 106.571 11.4 105.851 11.4ZM114.698 8.34H112.218V5.98H114.698V8.34ZM114.718 20H112.198V9.68H114.718V20ZM121.869 9.52C122.096 9.52 122.302 9.53333 122.489 9.56V11.88H121.849C120.889 11.88 120.149 12.1267 119.629 12.62C119.122 13.1 118.869 13.8133 118.869 14.76V20H116.349V9.68H118.789V11.52C119.362 10.1867 120.389 9.52 121.869 9.52ZM133.02 14.84C133.02 16.4667 132.54 17.7733 131.58 18.76C130.62 19.7467 129.353 20.24 127.78 20.24C126.207 20.24 124.94 19.7467 123.98 18.76C123.007 17.7867 122.52 16.48 122.52 14.84C122.52 13.2 123.007 11.8933 123.98 10.92C124.94 9.93333 126.207 9.44 127.78 9.44C129.353 9.44 130.62 9.92667 131.58 10.9C132.54 11.8733 133.02 13.1867 133.02 14.84ZM125.8 17.3C126.28 17.8733 126.94 18.16 127.78 18.16C128.62 18.16 129.273 17.8733 129.74 17.3C130.22 16.7133 130.46 15.8933 130.46 14.84C130.46 13.7867 130.22 12.9733 129.74 12.4C129.273 11.8133 128.62 11.52 127.78 11.52C126.94 11.52 126.28 11.8067 125.8 12.38C125.333 12.9533 125.1 13.7733 125.1 14.84C125.1 15.9067 125.333 16.7267 125.8 17.3ZM138.144 20.28C135.131 20.28 133.557 19.0933 133.424 16.72H135.884C135.951 17.36 136.157 17.8133 136.504 18.08C136.864 18.3467 137.424 18.48 138.184 18.48C139.544 18.48 140.224 18.0667 140.224 17.24C140.224 16.8667 140.077 16.58 139.784 16.38C139.491 16.18 138.964 16.0133 138.204 15.88L137.024 15.68C134.771 15.3067 133.644 14.2667 133.644 12.56C133.644 11.5867 134.017 10.8267 134.764 10.28C135.511 9.72 136.564 9.44 137.924 9.44C140.871 9.44 142.391 10.6067 142.484 12.94H140.104C140.077 12.3267 139.884 11.8933 139.524 11.64C139.164 11.3733 138.631 11.24 137.924 11.24C136.724 11.24 136.124 11.64 136.124 12.44C136.124 12.7867 136.257 13.06 136.524 13.26C136.791 13.4467 137.231 13.5933 137.844 13.7L139.144 13.9C140.397 14.1267 141.304 14.4867 141.864 14.98C142.437 15.4733 142.724 16.16 142.724 17.04C142.724 18.08 142.324 18.88 141.524 19.44C140.724 20 139.597 20.28 138.144 20.28Z" fill="#E6E6E6"/>
<path d="M155.964 18.712C154.956 19.72 153.696 20.224 152.184 20.224C150.672 20.224 149.412 19.72 148.404 18.712C147.396 17.704 146.892 16.472 146.892 15.016C146.892 13.5507 147.396 12.314 148.404 11.306C149.412 10.298 150.672 9.794 152.184 9.794C153.696 9.794 154.956 10.298 155.964 11.306C156.972 12.314 157.476 13.5507 157.476 15.016C157.476 16.4907 156.972 17.7227 155.964 18.712ZM149.356 17.844C150.093 18.6093 151.036 18.992 152.184 18.992C153.332 18.992 154.284 18.6093 155.04 17.844C155.787 17.0787 156.16 16.136 156.16 15.016C156.16 13.896 155.787 12.9487 155.04 12.174C154.284 11.418 153.332 11.04 152.184 11.04C151.045 11.04 150.103 11.418 149.356 12.174C148.609 12.9487 148.236 13.896 148.236 15.016C148.236 16.136 148.609 17.0787 149.356 17.844ZM152.226 17.97C151.395 17.97 150.728 17.704 150.224 17.172C149.729 16.6307 149.482 15.912 149.482 15.016C149.482 14.1107 149.729 13.392 150.224 12.86C150.728 12.328 151.395 12.062 152.226 12.062C152.954 12.062 153.551 12.2627 154.018 12.664C154.485 13.056 154.755 13.5927 154.83 14.274H153.43C153.327 13.574 152.926 13.224 152.226 13.224C151.797 13.224 151.465 13.378 151.232 13.686C150.999 13.994 150.882 14.4373 150.882 15.016C150.882 15.5853 150.999 16.024 151.232 16.332C151.465 16.64 151.797 16.794 152.226 16.794C152.571 16.794 152.851 16.7007 153.066 16.514C153.29 16.3273 153.425 16.0567 153.472 15.702H154.844C154.779 16.3927 154.508 16.9433 154.032 17.354C153.565 17.7647 152.963 17.97 152.226 17.97Z" fill="#F8260D"/>
</svg>
