<svg width="11" height="12" viewBox="0 0 11 12" fill="none" xmlns="http://www.w3.org/2000/svg">
<path d="M5.254 11.182C2.342 11.182 0.06 8.844 0.06 5.876C0.06 2.908 2.342 0.584 5.254 0.584C8.152 0.584 10.434 2.908 10.434 5.876C10.434 8.844 8.152 11.182 5.254 11.182ZM5.254 10.146C7.564 10.146 9.328 8.298 9.328 5.876C9.328 3.454 7.564 1.62 5.254 1.62C2.93 1.62 1.152 3.468 1.152 5.876C1.152 8.298 2.93 10.146 5.254 10.146ZM2.622 5.89C2.622 4.266 3.728 3.118 5.282 3.118C6.682 3.118 7.662 3.902 7.816 5.162H6.5C6.346 4.574 5.954 4.28 5.324 4.28C4.498 4.28 3.924 4.924 3.924 5.876C3.924 6.856 4.47 7.472 5.282 7.472C5.94 7.472 6.36 7.178 6.514 6.604H7.816C7.662 7.822 6.64 8.648 5.282 8.648C3.686 8.648 2.622 7.542 2.622 5.89Z" fill="white"/>
</svg>
